<svg width="187" height="25" viewBox="0 0 187 25" fill="none" xmlns="http://www.w3.org/2000/svg">
<path d="M12 0.5C11.0643 0.5 10.1535 0.607095 9.27979 0.810129C4.83668 1.83958 1.33958 5.33668 0.310129 9.77934C0.107095 10.6535 0 11.5643 0 12.5C0 19.1274 5.3726 24.5 12 24.5C12.9357 24.5 13.8465 24.3929 14.7207 24.1899C19.1633 23.1604 22.6604 19.6638 23.6903 15.2216C23.8934 14.3474 24.0004 13.4362 24.0004 12.5C24.0004 5.8726 18.6274 0.5 12 0.5ZM12 20.0149C11.1142 20.0149 10.2646 19.8619 9.47568 19.5803C7.35609 18.8244 5.67604 17.1444 4.92013 15.0248C4.63855 14.2358 4.4855 13.3858 4.4855 12.5C4.4855 8.34962 7.84962 4.98505 12 4.98505C12.8858 4.98505 13.7354 5.13811 14.5243 5.41968C16.6439 6.17559 18.3244 7.85565 19.0803 9.97523C19.3619 10.7642 19.5149 11.6142 19.5149 12.5C19.5149 16.6504 16.1504 20.0149 12 20.0149Z" fill="url(#paint0_linear_84_199)"/>
<path d="M12 7.65674C9.32529 7.65674 7.15662 9.82541 7.15662 12.5001C7.15662 15.1748 9.32529 17.3435 12 17.3435C14.6747 17.3435 16.8434 15.1748 16.8434 12.5001C16.8434 9.82541 14.6751 7.65674 12 7.65674ZM12 15.4287C10.3829 15.4287 9.07139 14.1177 9.07139 12.5001C9.07139 10.8825 10.3829 9.57151 12 9.57151C13.6171 9.57151 14.9286 10.8825 14.9286 12.5001C14.9286 14.1177 13.6176 15.4287 12 15.4287Z" fill="#FEFCFE"/>
<path d="M14.5243 5.41961C13.7354 5.13804 12.8858 4.98498 12 4.98498C7.84961 4.98498 4.48549 8.34955 4.48549 12.4999C4.48549 13.3857 4.63854 14.2358 4.92012 15.0247C3.96117 14.6624 3.06202 14.0952 2.29004 13.3232C1.2771 12.3103 0.617125 11.0782 0.31012 9.77927C1.33957 5.33661 4.83667 1.83951 9.27978 0.810059C10.5783 1.11706 11.8103 1.77704 12.8233 2.78998C13.5948 3.56151 14.162 4.46066 14.5243 5.41961Z" fill="url(#paint1_linear_84_199)"/>
<path d="M23.6903 15.2214C22.6604 19.6636 19.1633 23.1603 14.7206 24.1897C13.4221 23.8827 12.1901 23.2228 11.1771 22.2098C10.4052 21.4378 9.838 20.5387 9.47567 19.5802C10.2646 19.8618 11.1142 20.0148 12 20.0148C16.1504 20.0148 19.5149 16.6502 19.5149 12.4999C19.5149 11.6141 19.3619 10.764 19.0803 9.9751C20.0388 10.3374 20.938 10.9046 21.7099 11.6766C22.7229 12.6895 23.3833 13.9224 23.6903 15.2214Z" fill="url(#paint2_linear_84_199)"/>
<path d="M6.06425 20.9476C7.45125 20.9476 8.57563 19.8232 8.57563 18.4362C8.57563 17.0492 7.45125 15.9248 6.06425 15.9248C4.67726 15.9248 3.55288 17.0492 3.55288 18.4362C3.55288 19.8232 4.67726 20.9476 6.06425 20.9476Z" fill="url(#paint3_linear_84_199)"/>
<path d="M17.9581 9.05352C19.3451 9.05352 20.4694 7.92914 20.4694 6.54214C20.4694 5.15514 19.3451 4.03076 17.9581 4.03076C16.5711 4.03076 15.4467 5.15514 15.4467 6.54214C15.4467 7.92914 16.5711 9.05352 17.9581 9.05352Z" fill="url(#paint4_linear_84_199)"/>
<path d="M42.0026 19.7493C40.95 19.7493 40.0466 19.483 39.2924 18.9503C38.5424 18.4134 37.9649 17.6399 37.5601 16.63C37.1595 15.6158 36.9593 14.3949 36.9593 12.9673C36.9635 11.5398 37.1659 10.3253 37.5665 9.32386C37.9713 8.31818 38.5488 7.55114 39.2988 7.02273C40.053 6.49432 40.9543 6.23011 42.0026 6.23011C43.0509 6.23011 43.9522 6.49432 44.7064 7.02273C45.4607 7.55114 46.0381 8.31818 46.4387 9.32386C46.8435 10.3295 47.0459 11.544 47.0459 12.9673C47.0459 14.3991 46.8435 15.6222 46.4387 16.6364C46.0381 17.6463 45.4607 18.4176 44.7064 18.9503C43.9564 19.483 43.0551 19.7493 42.0026 19.7493ZM42.0026 17.7486C42.8208 17.7486 43.4664 17.3459 43.9394 16.5405C44.4167 15.7308 44.6553 14.5398 44.6553 12.9673C44.6553 11.9276 44.5466 11.054 44.3293 10.3466C44.112 9.6392 43.8051 9.10653 43.4088 8.74858C43.0125 8.38636 42.5438 8.20526 42.0026 8.20526C41.1887 8.20526 40.5452 8.61008 40.0722 9.41974C39.5992 10.2251 39.3605 11.4077 39.3563 12.9673C39.352 14.0114 39.4564 14.8892 39.6695 15.6009C39.8868 16.3125 40.1936 16.8494 40.5899 17.2116C40.9863 17.5696 41.4571 17.7486 42.0026 17.7486ZM53.3608 19.679C52.5085 19.679 51.7457 19.5192 51.0725 19.1996C50.3992 18.8757 49.8644 18.4325 49.4681 17.87C49.076 17.3075 48.8672 16.6641 48.8416 15.9396H51.1428C51.1854 16.4766 51.4176 16.9155 51.8395 17.2564C52.2614 17.593 52.7685 17.7614 53.3608 17.7614C53.8253 17.7614 54.2386 17.6548 54.6009 17.4418C54.9631 17.2287 55.2486 16.9325 55.4574 16.5533C55.6662 16.174 55.7685 15.7415 55.7642 15.2557C55.7685 14.7614 55.6641 14.3224 55.451 13.9389C55.2379 13.5554 54.946 13.255 54.5753 13.0376C54.2046 12.8161 53.7784 12.7053 53.2969 12.7053C52.9048 12.701 52.5192 12.7734 52.1399 12.9226C51.7607 13.0717 51.4602 13.2678 51.2386 13.5107L49.0973 13.1591L49.7813 6.40909H57.375V8.39062H51.7436L51.3665 11.8615H51.4432C51.6861 11.576 52.0291 11.3395 52.4723 11.152C52.9155 10.9602 53.4013 10.8643 53.9297 10.8643C54.7223 10.8643 55.4297 11.0518 56.0519 11.4268C56.674 11.7976 57.1641 12.3089 57.522 12.9609C57.88 13.6129 58.059 14.3587 58.059 15.1982C58.059 16.0632 57.8587 16.8345 57.4581 17.5121C57.0618 18.1854 56.51 18.7159 55.8026 19.1037C55.0994 19.4872 54.2855 19.679 53.3608 19.679ZM66.796 19.6982C66.1738 19.6982 65.6135 19.5874 65.1149 19.3658C64.6206 19.1399 64.2285 18.8075 63.9387 18.3686C63.6532 17.9297 63.5105 17.3885 63.5105 16.745C63.5105 16.1911 63.6128 15.733 63.8173 15.3707C64.0218 15.0085 64.301 14.7188 64.6547 14.5014C65.0083 14.2841 65.4068 14.12 65.85 14.0092C66.2974 13.8942 66.7598 13.8111 67.237 13.7599C67.8123 13.7003 68.2789 13.647 68.6369 13.6001C68.9949 13.549 69.2548 13.4723 69.4167 13.37C69.5829 13.2635 69.666 13.0994 69.666 12.8778V12.8395C69.666 12.358 69.5233 11.9851 69.2378 11.7209C68.9522 11.4567 68.541 11.3246 68.0041 11.3246C67.4373 11.3246 66.9878 11.4482 66.6554 11.6953C66.3272 11.9425 66.1056 12.2344 65.9906 12.571L63.8301 12.2642C64.0005 11.6676 64.2818 11.169 64.6738 10.7685C65.0659 10.3636 65.5453 10.0611 66.112 9.8608C66.6788 9.65625 67.3052 9.55398 67.9913 9.55398C68.4643 9.55398 68.9352 9.60938 69.4039 9.72017C69.8727 9.83097 70.301 10.0142 70.6887 10.2699C71.0765 10.5213 71.3876 10.8643 71.622 11.299C71.8606 11.7337 71.9799 12.277 71.9799 12.929V19.5H69.7555V18.1513H69.6788C69.5382 18.424 69.34 18.6797 69.0843 18.9183C68.8329 19.1527 68.5155 19.3423 68.1319 19.4872C67.7527 19.6278 67.3074 19.6982 66.796 19.6982ZM67.3968 17.9979C67.8613 17.9979 68.264 17.9062 68.6049 17.723C68.9458 17.5355 69.2079 17.2884 69.3912 16.9815C69.5787 16.6747 69.6724 16.3402 69.6724 15.978V14.821C69.6 14.8807 69.4764 14.9361 69.3017 14.9872C69.1312 15.0384 68.9395 15.0831 68.7264 15.1214C68.5133 15.1598 68.3024 15.1939 68.0936 15.2237C67.8848 15.2536 67.7037 15.2791 67.5503 15.3004C67.2051 15.3473 66.8961 15.424 66.6234 15.5305C66.3507 15.6371 66.1355 15.7862 65.9778 15.978C65.8201 16.1655 65.7413 16.4084 65.7413 16.7067C65.7413 17.1328 65.8968 17.4545 66.2079 17.6719C66.519 17.8892 66.9153 17.9979 67.3968 17.9979ZM83.3505 6.40909V19.5H80.979V8.71662H80.9023L77.8406 10.6726V8.49929L81.0941 6.40909H83.3505ZM86.3144 19.5V17.7869L90.8591 13.3317C91.2938 12.8928 91.656 12.5028 91.9457 12.1619C92.2355 11.821 92.4529 11.4908 92.5977 11.1712C92.7426 10.8516 92.8151 10.5107 92.8151 10.1484C92.8151 9.73508 92.7213 9.38139 92.5338 9.08736C92.3463 8.78906 92.0885 8.55895 91.7604 8.39702C91.4323 8.23508 91.0594 8.15412 90.6418 8.15412C90.2114 8.15412 89.8342 8.24361 89.5104 8.42259C89.1865 8.5973 88.9351 8.84659 88.7561 9.17045C88.5814 9.49432 88.494 9.87997 88.494 10.3274H86.2377C86.2377 9.49645 86.4273 8.77415 86.8065 8.16051C87.1858 7.54687 87.7078 7.07173 88.3726 6.73509C89.0416 6.39844 89.8087 6.23011 90.6737 6.23011C91.5516 6.23011 92.3229 6.39418 92.9877 6.7223C93.6524 7.05043 94.1681 7.5 94.5345 8.07102C94.9053 8.64204 95.0906 9.29403 95.0906 10.027C95.0906 10.517 94.9969 10.9986 94.8094 11.4716C94.6219 11.9446 94.2916 12.4687 93.8186 13.044C93.3499 13.6193 92.6915 14.3161 91.8435 15.1342L89.5871 17.429V17.5185H95.2888V19.5H86.3144ZM104.908 19.6726C104.137 19.6726 103.446 19.4744 102.837 19.0781C102.228 18.6818 101.746 18.1065 101.392 17.3523C101.039 16.598 100.862 15.6818 100.862 14.6037C100.862 13.5128 101.041 12.5923 101.399 11.8423C101.761 11.0881 102.249 10.5192 102.862 10.1357C103.476 9.74787 104.16 9.55398 104.914 9.55398C105.49 9.55398 105.963 9.65199 106.333 9.84801C106.704 10.0398 106.998 10.272 107.215 10.5447C107.433 10.8132 107.601 11.0668 107.72 11.3054H107.816V6.40909H110.137V19.5H107.861V17.9531H107.72C107.601 18.1918 107.429 18.4453 107.203 18.7138C106.977 18.978 106.679 19.2038 106.308 19.3913C105.937 19.5788 105.47 19.6726 104.908 19.6726ZM105.554 17.7741C106.044 17.7741 106.461 17.642 106.806 17.3778C107.152 17.1094 107.414 16.7365 107.593 16.2592C107.772 15.782 107.861 15.2259 107.861 14.5909C107.861 13.956 107.772 13.4041 107.593 12.9354C107.418 12.4666 107.158 12.1023 106.813 11.8423C106.472 11.5824 106.052 11.4524 105.554 11.4524C105.038 11.4524 104.607 11.5866 104.262 11.8551C103.917 12.1236 103.657 12.4943 103.482 12.9673C103.308 13.4403 103.22 13.9815 103.22 14.5909C103.22 15.2045 103.308 15.7521 103.482 16.2337C103.661 16.7109 103.924 17.0881 104.269 17.3651C104.618 17.6378 105.046 17.7741 105.554 17.7741ZM116.589 19.6918C115.605 19.6918 114.754 19.4872 114.039 19.0781C113.327 18.6648 112.779 18.081 112.396 17.3267C112.012 16.5682 111.82 15.6754 111.82 14.6484C111.82 13.6385 112.012 12.7521 112.396 11.9893C112.784 11.2223 113.325 10.6257 114.019 10.1996C114.714 9.76918 115.53 9.55398 116.467 9.55398C117.073 9.55398 117.644 9.65199 118.181 9.84801C118.722 10.0398 119.199 10.3381 119.612 10.7429C120.03 11.1477 120.358 11.6634 120.597 12.2898C120.835 12.9119 120.955 13.6534 120.955 14.5142V15.2237H112.907V13.6641H118.737C118.732 13.2209 118.637 12.8267 118.449 12.4815C118.262 12.1321 117.999 11.8572 117.663 11.657C117.33 11.4567 116.943 11.3565 116.499 11.3565C116.026 11.3565 115.611 11.4716 115.253 11.7017C114.895 11.9276 114.616 12.2259 114.416 12.5966C114.22 12.9631 114.119 13.3658 114.115 13.8047V15.1662C114.115 15.7372 114.22 16.2273 114.428 16.6364C114.637 17.0412 114.929 17.3523 115.304 17.5696C115.679 17.7827 116.118 17.8892 116.621 17.8892C116.958 17.8892 117.262 17.8423 117.535 17.7486C117.808 17.6506 118.044 17.5078 118.244 17.3203C118.445 17.1328 118.596 16.9006 118.698 16.6236L120.859 16.8665C120.722 17.4375 120.463 17.9361 120.079 18.3622C119.7 18.7841 119.214 19.1122 118.622 19.3466C118.029 19.5767 117.352 19.6918 116.589 19.6918ZM128.44 19.5H125.909L130.518 6.40909H133.445L138.061 19.5H135.529L132.033 9.09375H131.931L128.44 19.5ZM128.524 14.3672H135.427V16.272H128.524V14.3672ZM143.294 23.3864C142.463 23.3864 141.749 23.2734 141.152 23.0476C140.556 22.826 140.076 22.5277 139.714 22.1527C139.352 21.7777 139.1 21.3622 138.96 20.9062L141.044 20.4013C141.137 20.593 141.274 20.7827 141.453 20.9702C141.632 21.1619 141.872 21.3196 142.175 21.4432C142.482 21.571 142.867 21.6349 143.332 21.6349C143.988 21.6349 144.531 21.4751 144.962 21.1555C145.392 20.8402 145.607 20.3203 145.607 19.5959V17.7358H145.492C145.373 17.9744 145.198 18.2195 144.968 18.4709C144.742 18.7223 144.442 18.9332 144.067 19.1037C143.696 19.2741 143.23 19.3594 142.667 19.3594C141.913 19.3594 141.229 19.1825 140.615 18.8288C140.006 18.4709 139.52 17.9382 139.158 17.2308C138.8 16.5192 138.621 15.6286 138.621 14.5589C138.621 13.4808 138.8 12.571 139.158 11.8295C139.52 11.0838 140.008 10.5192 140.622 10.1357C141.235 9.74787 141.919 9.55398 142.674 9.55398C143.249 9.55398 143.722 9.65199 144.093 9.84801C144.468 10.0398 144.766 10.272 144.987 10.5447C145.209 10.8132 145.377 11.0668 145.492 11.3054H145.62V9.68182H147.902V19.6598C147.902 20.4993 147.702 21.1939 147.301 21.7436C146.901 22.2933 146.353 22.7045 145.659 22.9773C144.964 23.25 144.176 23.3864 143.294 23.3864ZM143.313 17.544C143.803 17.544 144.22 17.4247 144.566 17.1861C144.911 16.9474 145.173 16.6044 145.352 16.157C145.531 15.7095 145.62 15.1726 145.62 14.5462C145.62 13.9283 145.531 13.3871 145.352 12.9226C145.177 12.4581 144.917 12.098 144.572 11.8423C144.231 11.5824 143.811 11.4524 143.313 11.4524C142.797 11.4524 142.367 11.5866 142.022 11.8551C141.676 12.1236 141.416 12.4922 141.242 12.9609C141.067 13.4254 140.98 13.9538 140.98 14.5462C140.98 15.147 141.067 15.6733 141.242 16.125C141.421 16.5724 141.683 16.9219 142.028 17.1733C142.377 17.4205 142.806 17.544 143.313 17.544ZM154.196 19.6918C153.238 19.6918 152.407 19.4808 151.703 19.0589C151 18.6371 150.455 18.0469 150.067 17.2884C149.684 16.5298 149.492 15.6435 149.492 14.6293C149.492 13.6151 149.684 12.7266 150.067 11.9638C150.455 11.201 151 10.6087 151.703 10.1868C152.407 9.76491 153.238 9.55398 154.196 9.55398C155.155 9.55398 155.986 9.76491 156.689 10.1868C157.392 10.6087 157.936 11.201 158.319 11.9638C158.707 12.7266 158.901 13.6151 158.901 14.6293C158.901 15.6435 158.707 16.5298 158.319 17.2884C157.936 18.0469 157.392 18.6371 156.689 19.0589C155.986 19.4808 155.155 19.6918 154.196 19.6918ZM154.209 17.8381C154.729 17.8381 155.164 17.6953 155.513 17.4098C155.863 17.12 156.122 16.7322 156.293 16.2464C156.468 15.7607 156.555 15.2195 156.555 14.6229C156.555 14.022 156.468 13.4787 156.293 12.9929C156.122 12.5028 155.863 12.1129 155.513 11.8232C155.164 11.5334 154.729 11.3885 154.209 11.3885C153.676 11.3885 153.233 11.5334 152.88 11.8232C152.53 12.1129 152.268 12.5028 152.093 12.9929C151.923 13.4787 151.838 14.022 151.838 14.6229C151.838 15.2195 151.923 15.7607 152.093 16.2464C152.268 16.7322 152.53 17.12 152.88 17.4098C153.233 17.6953 153.676 17.8381 154.209 17.8381ZM168.265 12.277L166.155 12.5071C166.096 12.294 165.991 12.0938 165.842 11.9062C165.697 11.7188 165.501 11.5675 165.254 11.4524C165.007 11.3374 164.704 11.2798 164.346 11.2798C163.865 11.2798 163.46 11.3842 163.132 11.593C162.808 11.8018 162.648 12.0724 162.653 12.4048C162.648 12.6903 162.753 12.9226 162.966 13.1016C163.183 13.2805 163.541 13.4276 164.04 13.5426L165.714 13.9006C166.643 14.1009 167.334 14.4183 167.785 14.853C168.241 15.2876 168.471 15.8565 168.476 16.5597C168.471 17.1776 168.29 17.723 167.932 18.196C167.579 18.6648 167.087 19.0312 166.456 19.2955C165.825 19.5597 165.101 19.6918 164.283 19.6918C163.081 19.6918 162.114 19.4403 161.381 18.9375C160.648 18.4304 160.211 17.7251 160.07 16.8217L162.327 16.6044C162.429 17.0476 162.646 17.3821 162.979 17.608C163.311 17.8338 163.743 17.9467 164.276 17.9467C164.826 17.9467 165.267 17.8338 165.599 17.608C165.936 17.3821 166.104 17.103 166.104 16.7706C166.104 16.4893 165.996 16.2571 165.778 16.0739C165.565 15.8906 165.233 15.75 164.781 15.652L163.106 15.3004C162.165 15.1044 161.468 14.7741 161.016 14.3097C160.565 13.8409 160.341 13.2486 160.345 12.5327C160.341 11.9276 160.505 11.4034 160.837 10.9602C161.174 10.5128 161.64 10.1676 162.237 9.92472C162.838 9.67756 163.53 9.55398 164.315 9.55398C165.465 9.55398 166.371 9.79901 167.031 10.2891C167.696 10.7791 168.107 11.4418 168.265 12.277ZM174.926 9.68182V11.4716H169.282V9.68182H174.926ZM170.676 7.32955H172.99V16.5469C172.99 16.858 173.037 17.0966 173.13 17.2628C173.228 17.4247 173.356 17.5355 173.514 17.5952C173.671 17.6548 173.846 17.6847 174.038 17.6847C174.183 17.6847 174.315 17.674 174.434 17.6527C174.558 17.6314 174.652 17.6122 174.716 17.5952L175.105 19.4041C174.982 19.4467 174.805 19.4936 174.575 19.5447C174.349 19.5959 174.072 19.6257 173.744 19.6342C173.164 19.6513 172.642 19.5639 172.178 19.3722C171.713 19.1761 171.345 18.8736 171.072 18.4645C170.804 18.0554 170.671 17.544 170.676 16.9304V7.32955ZM180.679 19.6918C179.72 19.6918 178.889 19.4808 178.186 19.0589C177.483 18.6371 176.937 18.0469 176.55 17.2884C176.166 16.5298 175.974 15.6435 175.974 14.6293C175.974 13.6151 176.166 12.7266 176.55 11.9638C176.937 11.201 177.483 10.6087 178.186 10.1868C178.889 9.76491 179.72 9.55398 180.679 9.55398C181.638 9.55398 182.469 9.76491 183.172 10.1868C183.875 10.6087 184.418 11.201 184.802 11.9638C185.19 12.7266 185.383 13.6151 185.383 14.6293C185.383 15.6435 185.19 16.5298 184.802 17.2884C184.418 18.0469 183.875 18.6371 183.172 19.0589C182.469 19.4808 181.638 19.6918 180.679 19.6918ZM180.692 17.8381C181.212 17.8381 181.646 17.6953 181.996 17.4098C182.345 17.12 182.605 16.7322 182.775 16.2464C182.95 15.7607 183.038 15.2195 183.038 14.6229C183.038 14.022 182.95 13.4787 182.775 12.9929C182.605 12.5028 182.345 12.1129 181.996 11.8232C181.646 11.5334 181.212 11.3885 180.692 11.3885C180.159 11.3885 179.716 11.5334 179.362 11.8232C179.013 12.1129 178.751 12.5028 178.576 12.9929C178.405 13.4787 178.32 14.022 178.32 14.6229C178.32 15.2195 178.405 15.7607 178.576 16.2464C178.751 16.7322 179.013 17.12 179.362 17.4098C179.716 17.6953 180.159 17.8381 180.692 17.8381Z" fill="#FAFAFA"/>
<defs>
<linearGradient id="paint0_linear_84_199" x1="20.3704" y1="4.59058" x2="3.89023" y2="20.1635" gradientUnits="userSpaceOnUse">
<stop stop-color="#F38856"/>
<stop offset="0.23" stop-color="#F0625C"/>
<stop offset="1" stop-color="#5C3DAB"/>
</linearGradient>
<linearGradient id="paint1_linear_84_199" x1="11.2405" y1="2.53429" x2="1.86657" y2="11.8578" gradientUnits="userSpaceOnUse">
<stop stop-color="#F67986"/>
<stop offset="1" stop-color="#8951BA"/>
</linearGradient>
<linearGradient id="paint2_linear_84_199" x1="21.9616" y1="13.3129" x2="12.5877" y2="22.6369" gradientUnits="userSpaceOnUse">
<stop stop-color="#F67986"/>
<stop offset="1" stop-color="#8951BA"/>
</linearGradient>
<linearGradient id="paint3_linear_84_199" x1="7.89781" y1="16.7204" x2="4.23025" y2="20.1519" gradientUnits="userSpaceOnUse">
<stop stop-color="#A267B9"/>
<stop offset="1" stop-color="#704BB4"/>
</linearGradient>
<linearGradient id="paint4_linear_84_199" x1="19.4846" y1="5.11331" x2="16.9808" y2="7.45646" gradientUnits="userSpaceOnUse">
<stop stop-color="#F7A8A5"/>
<stop offset="0.97" stop-color="#D074C4"/>
<stop offset="1" stop-color="#CF76A9"/>
</linearGradient>
</defs>
</svg>
